# xmcd CD database file
#
# Track frame offsets:
#	150
#	14140
#	48597
#	73797
#	96747
#	119030
#	160952
#	209530
#	243305
#	264440
#
# Disc length: 3916 seconds
#
# Revision: 0
# Processed by: cddbd v1.5.1PL0 Copyright (c) Steve Scherf et al.
# Submitted via: CDex 1.51
#
DISCID=9f0f4a0a
DTITLE=JAZZ STANDARDS BEST 101 VOL.3 - JAZZ STANDARDS BEST 101 VOL.3
DYEAR=1990
DGENRE=Jazz
TTITLE0=Dark Eyes
TTITLE1=The Days Of Wine And Roses
TTITLE2=Django
TTITLE3=Don't Be The Way
TTITLE4=Don't Blame Me
TTITLE5=Embraceable You
TTITLE6=Everything Happens To Me
TTITLE7=Flying Home
TTITLE8=A Foggy Day
TTITLE9=Georgia On My Mind
EXTD=YEAR: 1990
EXTT0=
EXTT1=
EXTT2=
EXTT3=
EXTT4=
EXTT5=
EXTT6=
EXTT7=
EXTT8=
EXTT9=
PLAYORDER=
